
<!DOCTYPE svg PUBLIC "-//W3C//DTD SVG 1.0//EN" "http://www.w3.org/TR/2001/REC-SVG-20010904/DTD/svg10.dtd">
<!-- Creator: CorelDRAW 2020 (64 Bit) -->
<svg xmlns="http://www.w3.org/2000/svg" xml:space="preserve" width="240px" height="240px" version="1.0" style="shape-rendering:geometricPrecision; text-rendering:geometricPrecision; image-rendering:optimizeQuality; fill-rule:evenodd; clip-rule:evenodd"
viewBox="0 0 240 240"
 
 >
 
 
  <metadata id="CorelCorpID_0Corel-Layer"/>
  <path fill="var(--clr-icon, #ffffff)" opacity="0.6" d="M72 80l96 0c1.1,0 2,0.9 2,2l0 6c0,1.09 -0.91,2 -2,2l-96 0c-1.1,0 -2,-0.9 -2,-2l0 -6c0,-1.1 0.9,-2 2,-2z"/>
  <path fill="var(--clr-icon, #ffffff)" opacity="0.6" d="M72 100l46 0c1.1,0 2,0.91 2,2l0 6c0,1.09 -0.91,2 -2,2l-46 0c-1.09,0 -2,-0.9 -2,-2l0 -6c0,-1.1 0.9,-2 2,-2z"/>
  <path fill="var(--clr-icon, #ffffff)" d="M165 159.99c13.8,0 25,11.2 25,25.01 0,13.79 -11.21,25 -25,25 -13.81,0 -25,-11.2 -25,-25 0,-13.8 11.21,-25.01 25,-25.01zm0 12.51c-6.92,0 -12.5,5.57 -12.5,12.5 0,6.9 5.59,12.5 12.5,12.5 6.92,0 12.5,-5.58 12.5,-12.5 0,-6.91 -5.6,-12.5 -12.5,-12.5z"/>
  <circle fill="var(--clr-icon, #ffffff)" cx="205" cy="165" r="5"/>
  <path fill="var(--clr-icon, #ffffff)" d="M210 220c5.48,0 10,-4.52 10,-10 0,-26.67 0,-23.34 0,-50.01 0,-5.48 -4.52,-10 -10,-10 -10.23,0 -10.47,0 -20.7,0 -1.67,0 -2.62,-1.25 -3.72,-2.51l-12.98 -14.97c-1.1,-1.26 -2.07,-2.52 -3.72,-2.52l-7.77 0c-1.65,0 -2.63,1.27 -3.71,2.52l-12.99 14.97c-1.08,1.25 -2.05,2.51 -3.71,2.51 -10.24,0 -10.47,0 -20.71,0 -5.48,0 -10,4.52 -10,10 0,26.67 0,23.34 0,50.01 0,5.48 4.52,10 10,10 40,0 50.01,0 90.01,0zm-10.55 -90.01l10.55 0c16.52,0 30,13.48 30,30 0,26.67 0,23.34 0,50.01 0,16.52 -13.48,30 -30,30 -40,0 -50,0 -90,0 -16.52,0 -30.01,-13.48 -30.01,-30 0,-26.67 0,-23.34 0,-50.01 0,-16.52 13.49,-30 30.01,-30l10.55 0c1.67,0 2.67,-1.21 3.71,-2.51l8.98 -11.2c2.61,-3.26 5.11,-6.29 9.28,-6.29l24.95 0c4.17,0 6.69,3.05 9.29,6.29l8.97 11.2c1.04,1.29 2.05,2.51 3.72,2.51z"/>
  <path fill="var(--clr-icon, #ffffff)" opacity="0.6" d="M75.35 238.76c-30.2,-5 -45.35,-25.13 -45.35,-60.29l0 -116.94c0,-40.96 20.56,-61.53 61.53,-61.53l56.94 0c40.97,0 61.53,20.57 61.53,61.53l0 44.47c0,2.2 -1.8,4 -4,4l-12 0c-2.2,0 -4,-1.8 -4,-4l0 -44.47c0,-14.96 -3.19,-25.63 -9.54,-31.98 -6.36,-6.36 -17.03,-9.55 -31.99,-9.55l-56.94 0c-14.96,0 -25.63,3.19 -31.99,9.55 -6.35,6.35 -9.54,17.02 -9.54,31.98l0 116.94c0,14.96 3.19,25.63 9.54,31.99 4.02,4.02 9.77,6.77 17.24,8.25 1.89,0.38 3.22,2 3.22,3.92l0 12.18c0,1.22 -0.49,2.27 -1.41,3.05 -0.93,0.79 -2.04,1.1 -3.24,0.9z"/>
  <path fill="var(--clr-icon, #ffffff)" d="M74.69 40l3.08 0 8 0 4.05 0c2.64,0 5.06,1.02 6.87,2.68 -4.15,4.15 -8.75,8.74 -12.08,12.07 -0.28,0.29 -0.75,0.29 -1.03,0l-4.93 -4.92 -5.17 5.17 5.61 5.62c1.47,1.46 3.01,2.27 4.82,2.34 2.04,0.07 3.72,-0.88 5.13,-2.29 3.07,-3.07 7.1,-7.1 10.95,-10.96 0.01,0.16 0.01,0.31 0.01,0.47l0 6.86 0 4.98 0 2.75c0,1.93 -0.37,3.29 -1.12,4.1 -0.7,0.75 -1.89,1.13 -3.57,1.13l-3.08 0 -14.46 0 -3.08 0c-1.68,0 -2.87,-0.38 -3.57,-1.13 -0.75,-0.81 -1.12,-2.17 -1.12,-4.1l0 -2.75 0 -14.04 0 -2.75c0,-1.93 0.37,-3.29 1.12,-4.1 0.7,-0.75 1.89,-1.13 3.57,-1.13z"/>
  <path fill="var(--clr-icon, #ffffff)" opacity="0.6" d="M151.99 40l16.01 0c1.1,0 2,0.91 2,2l0 6c0,1.08 -0.92,2 -2,2l-16.01 0c-1.08,0 -2,-0.9 -2,-2l0 -6c0,-1.1 0.9,-2 2,-2z"/>
 
</svg>
