
<!DOCTYPE svg PUBLIC "-//W3C//DTD SVG 1.0//EN" "http://www.w3.org/TR/2001/REC-SVG-20010904/DTD/svg10.dtd">
<!-- Creator: CorelDRAW 2020 (64 Bit) -->
<svg xmlns="http://www.w3.org/2000/svg" xml:space="preserve" width="240px" height="240px" version="1.0" style="shape-rendering:geometricPrecision; text-rendering:geometricPrecision; image-rendering:optimizeQuality; fill-rule:evenodd; clip-rule:evenodd"
viewBox="0 0 240 240"
 
 >
 
 
  <metadata id="CorelCorpID_0Corel-Layer"/>
  <path fill="var(--clr-icon, #ffffff)" d="M190 129.8l0 -19.6c0,-10.47 -1.31,-19.48 -3.94,-27.03 -2.5,-7.17 -6.2,-13.12 -11.1,-17.85l-0.28 -0.28c-4.73,-4.9 -10.68,-8.6 -17.85,-11.1 -7.55,-2.63 -16.56,-3.94 -27.03,-3.94l-19.6 0c-10.47,0 -19.48,1.31 -27.03,3.94 -7.17,2.5 -13.12,6.2 -17.85,11.1l-0.28 0.28c-4.9,4.73 -8.6,10.68 -11.1,17.85 -2.63,7.55 -3.94,16.56 -3.94,27.03l0 19.6c0,10.47 1.31,19.48 3.94,27.03 2.5,7.17 6.2,13.12 11.1,17.85l0.28 0.28c4.73,4.9 10.68,8.6 17.85,11.1 7.55,2.63 16.56,3.94 27.03,3.94l19.6 0c10.47,0 19.48,-1.31 27.03,-3.94 7.17,-2.5 13.12,-6.2 17.85,-11.1l0.28 -0.28c4.9,-4.73 8.6,-10.68 11.1,-17.85 2.63,-7.55 3.94,-16.56 3.94,-27.03zm20 -19.6l0 19.6c0,12.6 -1.7,23.8 -5.12,33.6 -3.52,10.1 -8.84,18.61 -15.96,25.52 -6.91,7.12 -15.42,12.44 -25.52,15.96 -9.8,3.42 -21,5.12 -33.6,5.12l-19.6 0c-12.6,0 -23.8,-1.7 -33.6,-5.12 -10.1,-3.52 -18.61,-8.84 -25.52,-15.96 -7.12,-6.91 -12.44,-15.42 -15.96,-25.52 -3.42,-9.8 -5.12,-21 -5.12,-33.6l0 -19.6c0,-12.6 1.7,-23.8 5.12,-33.6 3.52,-10.1 8.84,-18.61 15.96,-25.52 6.91,-7.12 15.42,-12.44 25.52,-15.96 9.8,-3.42 21,-5.12 33.6,-5.12l19.6 0c12.6,0 23.8,1.7 33.6,5.12 10.1,3.52 18.61,8.84 25.52,15.96 7.12,6.91 12.44,15.42 15.96,25.52 3.42,9.8 5.12,21 5.12,33.6z"/>
  <path fill="var(--clr-icon, #ffffff)" d="M101.61 87.48l15.56 15.55c1.56,1.56 4.1,1.56 5.66,0l15.56 -15.55c1.55,-1.56 4.09,-1.56 5.65,0l8.49 8.48c1.55,1.56 1.54,4.11 0,5.66l-15.56 15.56c-1.54,1.54 -1.55,4.1 0,5.65l15.56 15.56c1.55,1.55 1.54,4.11 0,5.66l-8.49 8.48c-1.54,1.55 -4.11,1.55 -5.65,0l-15.56 -15.56c-1.55,-1.54 -4.12,-1.54 -5.66,0l-15.56 15.56c-1.54,1.55 -4.1,1.55 -5.65,0l-8.49 -8.48c-1.55,-1.56 -1.55,-4.1 0,-5.66l15.56 -15.56c1.56,-1.56 1.55,-4.11 0,-5.65l-15.56 -15.56c-1.55,-1.55 -1.55,-4.1 0,-5.66l8.49 -8.48c1.56,-1.56 4.1,-1.56 5.65,0z"/>
 
</svg>
